<svg id="setting-4" xmlns="http://www.w3.org/2000/svg" width="22" height="22" viewBox="0 0 22 22">
  <path id="Vector" d="M5.5,0H0" transform="translate(14.667 5.958)" fill="none" stroke="#292d32" stroke-linecap="round" stroke-linejoin="round" stroke-width="1.5"/>
  <g id="Group_633" data-name="Group 633" transform="translate(1.833 2.75)" opacity="0.4">
    <path id="Vector-2" data-name="Vector" d="M3.667,0H0" transform="translate(0 3.208)" fill="none" stroke="#292d32" stroke-linecap="round" stroke-linejoin="round" stroke-width="1.5"/>
    <path id="Vector-3" data-name="Vector" d="M6.417,3.208A3.208,3.208,0,1,1,3.208,0,3.208,3.208,0,0,1,6.417,3.208Z" transform="translate(4.125)" fill="none" stroke="#292d32" stroke-linecap="round" stroke-linejoin="round" stroke-width="1.5"/>
  </g>
  <path id="Vector-4" data-name="Vector" d="M5.5,0H0" transform="translate(1.833 16.042)" fill="none" stroke="#292d32" stroke-linecap="round" stroke-linejoin="round" stroke-width="1.5"/>
  <g id="Group_634" data-name="Group 634" transform="translate(9.625 12.833)" opacity="0.4">
    <path id="Vector-5" data-name="Vector" d="M3.667,0H0" transform="translate(6.875 3.208)" fill="none" stroke="#292d32" stroke-linecap="round" stroke-linejoin="round" stroke-width="1.5"/>
    <path id="Vector-6" data-name="Vector" d="M6.417,3.208A3.208,3.208,0,1,1,3.208,0,3.208,3.208,0,0,1,6.417,3.208Z" transform="translate(0)" fill="none" stroke="#292d32" stroke-linecap="round" stroke-linejoin="round" stroke-width="1.5"/>
  </g>
  <path id="Vector-7" data-name="Vector" d="M0,0H22V22H0Z" fill="none" opacity="0"/>
</svg>
