<svg id="vuesax_bold_microphone" data-name="vuesax/bold/microphone" xmlns="http://www.w3.org/2000/svg" width="24" height="24" viewBox="0 0 24 24">
  <g id="microphone">
    <path id="Vector" d="M9.15,11.73A9.161,9.161,0,0,1,0,2.58V.7A.7.7,0,0,1,.7,0a.709.709,0,0,1,.7.7V2.58a7.74,7.74,0,1,0,15.48,0V.7a.7.7,0,0,1,1.4,0V2.58a9.131,9.131,0,0,1-9.13,9.15Z" transform="translate(2.85 10.2)" fill="#fff"/>
    <path id="Vector-2" data-name="Vector" d="M12.2,6.1v4.69a6.1,6.1,0,0,1-12.2,0V6.1a6.1,6.1,0,0,1,12.2,0ZM7.85,7.84a7.058,7.058,0,0,0-3.76,0,.611.611,0,0,0,.32,1.18,5.9,5.9,0,0,1,3.12,0,.875.875,0,0,0,.16.02.611.611,0,0,0,.16-1.2Zm.91-2.8a8.2,8.2,0,0,0-5.57,0,.617.617,0,0,0-.37.78.61.61,0,0,0,.79.36,6.9,6.9,0,0,1,4.74,0,.522.522,0,0,0,.21.04.6.6,0,0,0,.57-.4A.617.617,0,0,0,8.76,5.04Z" transform="translate(5.9 2)" fill="#fff"/>
    <path id="Vector-3" data-name="Vector" d="M0,0H24V24H0Z" fill="none" opacity="0"/>
  </g>
</svg>
