<svg id="vuesax_bulk_card-receive" data-name="vuesax/bulk/card-receive" xmlns="http://www.w3.org/2000/svg" width="50" height="50" viewBox="0 0 50 50">
  <g id="card-receive">
    <path id="Vector" d="M10.354,14.583H4.229A3.888,3.888,0,0,1,0,10.354V4.229A3.888,3.888,0,0,1,4.229,0h6.125a3.888,3.888,0,0,1,4.229,4.229v6.125A3.888,3.888,0,0,1,10.354,14.583Zm.458-6.9a1.308,1.308,0,0,0-1.833,0L8.6,8.063V3.4a1.313,1.313,0,0,0-2.625,0V8.063L5.6,7.688A1.3,1.3,0,0,0,3.771,9.521l2.6,2.6a1.281,1.281,0,0,0,.4.25c.042.021.083.021.125.042a.864.864,0,0,0,.333.063h.125a.993.993,0,0,0,.417-.083h.042a1.182,1.182,0,0,0,.375-.25c.021-.021.021-.021.042-.021l2.6-2.6a1.289,1.289,0,0,0-.021-1.833Z" transform="translate(33.333 2.083)" fill="#fff"/>
    <path id="Vector-2" data-name="Vector" d="M41.667,9.1v2.562H0V8.625A8.633,8.633,0,0,1,8.646,0H29.167V5.354A3.888,3.888,0,0,0,33.4,9.583h6.125A4.353,4.353,0,0,0,41.667,9.1Z" transform="translate(4.167 7.083)" fill="#fff" opacity="0.4"/>
    <path id="Vector-3" data-name="Vector" d="M41.667,0V15.542a8.633,8.633,0,0,1-8.646,8.625H8.646A8.633,8.633,0,0,1,0,15.542V0Zm-27.6,15.625A1.574,1.574,0,0,0,12.5,14.063H8.333a1.563,1.563,0,0,0,0,3.125H12.5A1.574,1.574,0,0,0,14.063,15.625Zm13.542,0a1.574,1.574,0,0,0-1.562-1.562H17.708a1.563,1.563,0,0,0,0,3.125h8.333A1.574,1.574,0,0,0,27.6,15.625Z" transform="translate(4.167 18.75)" fill="#fff"/>
    <path id="Vector-4" data-name="Vector" d="M0,0H50V50H0Z" fill="none" opacity="0"/>
  </g>
</svg>
