<svg id="vuesax_bold_document-text" data-name="vuesax/bold/document-text" xmlns="http://www.w3.org/2000/svg" width="24" height="24" viewBox="0 0 24 24">
  <g id="document-text">
    <path id="Vector" d="M6.62,5.735A.631.631,0,0,1,6.15,6.8c-1.13,0-2.45,0-3.4-.01A2.726,2.726,0,0,1,0,4.125V.635A.654.654,0,0,1,1.12.195C2.6,1.675,5.18,4.285,6.62,5.735Z" transform="translate(14.68 2.015)" fill="#003fe0"/>
    <path id="Vector-2" data-name="Vector" d="M19,9.19v5.24A5.277,5.277,0,0,1,13.43,20H5.57A5.277,5.277,0,0,1,0,14.43V5.57A5.277,5.277,0,0,1,5.57,0H9.81a1,1,0,0,1,1,1V3.89a4.306,4.306,0,0,0,4.3,4.3H18a1,1,0,0,1,1,1ZM9.75,15A.755.755,0,0,0,9,14.25H5a.75.75,0,0,0,0,1.5H9A.755.755,0,0,0,9.75,15Zm2-4a.755.755,0,0,0-.75-.75H5a.75.75,0,0,0,0,1.5h6A.755.755,0,0,0,11.75,11Z" transform="translate(2.5 2)" fill="#003fe0"/>
    <path id="Vector-3" data-name="Vector" d="M0,0H24V24H0Z" transform="translate(24 24) rotate(180)" fill="none" opacity="0"/>
  </g>
</svg>
