<svg id="vuesax_bold_emoji-happy" data-name="vuesax/bold/emoji-happy" xmlns="http://www.w3.org/2000/svg" width="24" height="24" viewBox="0 0 24 24">
  <g id="emoji-happy">
    <path id="Vector" d="M19.99,5.81v8.38c0,3.64-2.17,5.81-5.81,5.81H5.81C2.17,20,0,17.83,0,14.18V5.81C0,2.17,2.17,0,5.81,0h8.38c3.64,0,5.81,2.17,5.8,5.81ZM4.62,6.25A1.88,1.88,0,1,0,6.5,4.38,1.893,1.893,0,0,0,4.62,6.25ZM14.86,12.2a1.274,1.274,0,0,0-1.27-1.28H6.39A1.28,1.28,0,0,0,5.12,12.2a4.87,4.87,0,1,0,9.74,0Zm.52-5.96A1.88,1.88,0,1,0,13.5,8.12,1.878,1.878,0,0,0,15.38,6.24Z" transform="translate(2 2)" fill="#003fe0"/>
    <path id="Vector-2" data-name="Vector" d="M0,0H24V24H0Z" transform="translate(24 24) rotate(180)" fill="none" opacity="0"/>
  </g>
</svg>
