<svg id="vuesax_bulk_setting" data-name="vuesax/bulk/setting" xmlns="http://www.w3.org/2000/svg" width="24" height="24" viewBox="0 0 24 24">
  <g id="setting">
    <path id="Vector" d="M18.34,7.278v5.44c0,2.23-.12,2.44-2.19,3.84l-5.22,3.01A3.531,3.531,0,0,1,9.17,20a3.6,3.6,0,0,1-1.77-.43l-5.17-2.99C.12,15.158,0,14.938,0,12.708V7.278c0-2.23.12-2.44,2.19-3.84L7.41.428a3.857,3.857,0,0,1,3.53,0l5.17,2.99c2.11,1.42,2.23,1.63,2.23,3.86Z" transform="translate(2.83 2.003)" fill="#9c2f2f" opacity="0.4"/>
    <path id="Vector-2" data-name="Vector" d="M6.5,3.25A3.25,3.25,0,1,1,3.25,0,3.25,3.25,0,0,1,6.5,3.25Z" transform="translate(8.75 8.75)" fill="#9c2f2f"/>
    <path id="Vector-3" data-name="Vector" d="M0,0H24V24H0Z" fill="none" opacity="0"/>
  </g>
</svg>
