<svg id="vuesax_bold_calendar" data-name="vuesax/bold/calendar" xmlns="http://www.w3.org/2000/svg" width="24" height="24" viewBox="0 0 24 24">
  <g id="calendar">
    <path id="Vector" d="M0,0H24V24H0Z" fill="none" opacity="0"/>
    <path id="Vector-2" data-name="Vector" d="M17.921,6.56a.5.5,0,0,1-.5.53H.5A.5.5,0,0,1,0,6.56a4.248,4.248,0,0,1,4.21-4.25V.75a.75.75,0,0,1,1.5,0v1.5h6.5V.75a.75.75,0,0,1,1.5,0V2.31a4.248,4.248,0,0,1,4.21,4.25Z" transform="translate(3.039 1.25)" fill="#003fe0"/>
    <path id="Vector-3" data-name="Vector" d="M18,1V7.16c0,3-1.5,5-5,5H5c-3.5,0-5-2-5-5V1A1,1,0,0,1,1,0H17A1,1,0,0,1,18,1ZM6.5,7.66a1.052,1.052,0,0,0-.29-.71l-.15-.12a.757.757,0,0,0-.18-.09.636.636,0,0,0-.18-.06.956.956,0,0,0-.58.06,1.032,1.032,0,0,0-.33.21,1.014,1.014,0,0,0,0,1.42,1.032,1.032,0,0,0,.33.21,1,1,0,0,0,.38.08,1.355,1.355,0,0,0,.2-.02.636.636,0,0,0,.18-.06.757.757,0,0,0,.18-.09,1.576,1.576,0,0,0,.15-.12,1.052,1.052,0,0,0,.29-.71Zm0-3.5a1.052,1.052,0,0,0-.29-.71.933.933,0,0,0-.33-.21,1,1,0,0,0-1.09.21,1.014,1.014,0,0,0,0,1.42,1.014,1.014,0,0,0,1.42,0A1.052,1.052,0,0,0,6.5,4.16ZM10,7.66a1,1,0,0,0-1.71-.71A1,1,0,0,0,9.71,8.37,1.052,1.052,0,0,0,10,7.66Zm0-3.5a1.052,1.052,0,0,0-.29-.71,1,1,0,0,0-1.09-.21.933.933,0,0,0-.33.21,1.014,1.014,0,0,0,0,1.42A1.052,1.052,0,0,0,9,5.16a1.355,1.355,0,0,0,.2-.02.636.636,0,0,0,.18-.06.757.757,0,0,0,.18-.09l.15-.12A1.052,1.052,0,0,0,10,4.16Zm3.5,3.5a.99.99,0,1,0-.29.71A1.052,1.052,0,0,0,13.5,7.66Zm0-3.5a1.052,1.052,0,0,0-.29-.71l-.15-.12a.757.757,0,0,0-.18-.09.636.636,0,0,0-.18-.06.956.956,0,0,0-.58.06,1.032,1.032,0,0,0-.33.21,1.014,1.014,0,0,0,0,1.42,1.052,1.052,0,0,0,.71.29,1.5,1.5,0,0,0,.2-.02.636.636,0,0,0,.18-.06.757.757,0,0,0,.18-.09l.15-.12A1.052,1.052,0,0,0,13.5,4.16Z" transform="translate(3 9.84)" fill="#003fe0"/>
  </g>
</svg>
