<svg id="vuesax_bulk_clipboard-tick" data-name="vuesax/bulk/clipboard-tick" xmlns="http://www.w3.org/2000/svg" width="28" height="28" viewBox="0 0 28 28">
  <g id="clipboard-tick">
    <path id="Vector" d="M20.312,5.215V16.193A5.221,5.221,0,0,1,15.1,21.408H5.215A5.228,5.228,0,0,1,0,16.193V5.215A5.221,5.221,0,0,1,5.215,0h9.893a5.2,5.2,0,0,1,5.2,5.215Z" transform="translate(3.838 4.258)" fill="#226fee" opacity="0.4"/>
    <path id="Vector-2" data-name="Vector" d="M9.882,2.193v1.1A2.191,2.191,0,0,1,7.688,5.483H2.193A2.191,2.191,0,0,1,0,3.29v-1.1A2.2,2.2,0,0,1,2.205,0H7.688A2.183,2.183,0,0,1,9.882,2.193Z" transform="translate(9.053 2.333)" fill="#226fee"/>
    <path id="Vector-3" data-name="Vector" d="M2.622,6.414A.865.865,0,0,1,2,6.157L.254,4.407A.874.874,0,0,1,1.49,3.17L2.622,4.3,6.67.254A.874.874,0,0,1,7.907,1.49L3.24,6.157a.846.846,0,0,1-.618.257Z" transform="translate(9.99 13.361)" fill="#226fee"/>
    <path id="Vector-4" data-name="Vector" d="M0,0H28V28H0Z" fill="none" opacity="0"/>
  </g>
</svg>
