<svg id="vuesax_bold_frame" data-name="vuesax/bold/frame" xmlns="http://www.w3.org/2000/svg" width="24" height="24" viewBox="0 0 24 24">
  <g id="frame">
    <path id="Vector" d="M9.5,4.75A4.738,4.738,0,0,1,4.92,9.49H4.85a.807.807,0,0,0-.22,0A4.746,4.746,0,1,1,9.5,4.75Z" transform="translate(7.25 2)" fill="#003fe0"/>
    <path id="Vector-2" data-name="Vector" d="M14.08,4.605a3.945,3.945,0,0,1-1.96,3.23,9.239,9.239,0,0,1-5.08,1.41,9.239,9.239,0,0,1-5.08-1.41A3.914,3.914,0,0,1,0,4.625a3.947,3.947,0,0,1,1.97-3.23,9.929,9.929,0,0,1,10.15,0A3.937,3.937,0,0,1,14.08,4.605Z" transform="translate(4.96 12.755)" fill="#003fe0"/>
    <path id="Vector-3" data-name="Vector" d="M0,0H24V24H0Z" transform="translate(24 24) rotate(180)" fill="none" opacity="0"/>
  </g>
</svg>
