<svg id="vuesax_bulk_edit" data-name="vuesax/bulk/edit" xmlns="http://www.w3.org/2000/svg" width="28" height="28" viewBox="0 0 28 28">
  <g id="edit">
    <path id="Vector" d="M22.155,6.44v9.287c0,4.037-2.4,6.44-6.44,6.44H6.44c-4.025,0-6.44-2.4-6.44-6.452V6.44C0,2.4,2.415,0,6.44,0h9.287c4.025,0,6.44,2.4,6.428,6.44Z" transform="translate(2.333 3.5)" fill="#226fee" opacity="0.4"/>
    <path id="Vector-2" data-name="Vector" d="M9.307,4.754A4.484,4.484,0,0,1,7.72,7.869l-1.3,1.307A.451.451,0,0,1,6.11,9.3a.478.478,0,0,1-.128-.012A8.748,8.748,0,0,1,.02,3.331a.425.425,0,0,1,.1-.432L1.443,1.593c2.147-2.147,4.188-2.1,6.277,0A4.575,4.575,0,0,1,9.307,4.754Z" transform="translate(16.803 1.884)" fill="#226fee"/>
    <path id="Vector-3" data-name="Vector" d="M13.946,6.288,7.669,12.565a3.486,3.486,0,0,1-1.75.887l-3.465.49c-.128.012-.257.023-.385.023a2.069,2.069,0,0,1-1.493-.583A2.184,2.184,0,0,1,.028,11.5l.5-3.477a3.581,3.581,0,0,1,.887-1.75L7.693,0c.105.292.222.6.373.922a9.2,9.2,0,0,0,.467.887,5.585,5.585,0,0,0,.42.642,4.357,4.357,0,0,0,.443.6.893.893,0,0,0,.152.2,8.4,8.4,0,0,0,1.108,1.12,1.2,1.2,0,0,0,.187.163,6.09,6.09,0,0,0,.607.467c.222.163.455.315.688.455a9.323,9.323,0,0,0,.9.478c.327.14.618.268.91.362Z" transform="translate(7.801 6.23)" fill="#226fee"/>
    <path id="Vector-4" data-name="Vector" d="M0,0H28V28H0Z" fill="none" opacity="0"/>
  </g>
</svg>
